<svg xmlns="http://www.w3.org/2000/svg" viewBox="0 0 512 512" role="img" aria-label="LangSpace">
  <defs>
    <linearGradient id="bg" x1="0" y1="0" x2="0" y2="1">
      <stop offset="0%" stop-color="#0A0A0A"/>
      <stop offset="100%" stop-color="#141414"/>
    </linearGradient>
    <linearGradient id="og" x1="0" y1="0" x2="1" y2="1">
      <stop offset="0%" stop-color="#FFAE66" stop-opacity=".9"/>
      <stop offset="100%" stop-color="#FF6E00"/>
    </linearGradient>
  </defs>
  <rect width="512" height="512" fill="url(#bg)"/>
  <g stroke="#FF8220" stroke-opacity=".5" fill="none" stroke-width="4">
    <polyline points="50,130 300,130 410,240"/>
    <polyline points="80,360 230,360 340,280 460,280"/>
    <polyline points="60,250 180,250 180,160"/>
    <circle cx="50" cy="130" r="3"/><circle cx="300" cy="130" r="3"/><circle cx="410" cy="240" r="3"/>
    <circle cx="80" cy="360" r="3"/><circle cx="230" cy="360" r="3"/><circle cx="340" cy="280" r="3"/><circle cx="460" cy="280" r="3"/>
    <circle cx="60" cy="250" r="3"/><circle cx="180" cy="250" r="3"/><circle cx="180" cy="160" r="3"/>
  </g>
  <g>
    <polygon points="386,256 320,369 192,369 126,256 192,143 320,143" fill="url(#og)"/>
    <polygon points="266,410 238,410 248,370" fill="#FF6E00"/>
    <circle cx="256" cy="256" r="140" fill="none" stroke="#FFAE66" stroke-opacity=".7" stroke-width="8"/>
  </g>
  <text x="256" y="256" text-anchor="middle" dominant-baseline="middle"
        font-family="DejaVu Sans Mono, Menlo, Consolas, monospace" font-weight="700" font-size="170" fill="#000000">LS</text>
</svg>